<?xml version="1.0" encoding="UTF-8"?>
<svg xmlns="http://www.w3.org/2000/svg" id="Calque_1" viewBox="0 0 692.37 114.88">
  <defs>
    <style>.cls-1{fill:#4a5da7;}.cls-1,.cls-2,.cls-3{stroke-width:0px;}.cls-2{fill:#706f6f;}.cls-3{fill:#1f2043;}</style>
  </defs>
  <path class="cls-2" d="M677.73,86.12c-8.67,0-14.64,5.66-14.64,15.08v10.21h29.29v-10.21c0-9.42-5.98-15.08-14.64-15.08M688.37,107.21h-21.29v-6.02c0-6.85,4.23-10.65,10.65-10.65s10.65,3.8,10.65,10.65v6.02Z"></path>
  <path class="cls-2" d="M662.6,68.85c0,7.92,5.19,12.55,13.69,12.55h16.07v-4.19h-8.23v-16.7h8.23v-4.19h-16.07c-8.51,0-13.69,4.63-13.69,12.55M680.02,77.2h-3.72c-6.02,0-9.62-3.05-9.62-8.35s3.6-8.35,9.62-8.35h3.72v16.7Z"></path>
  <polygon class="cls-2" points="667.16 30.56 663.08 30.56 663.08 53.32 667.16 53.32 667.16 44.09 692.37 44.09 692.37 39.82 667.16 39.82 667.16 30.56"></polygon>
  <path class="cls-2" d="M692.37,6.68V2.49h-16.07c-8.51,0-13.69,4.63-13.69,12.55s5.19,12.55,13.69,12.55h16.07v-4.19h-8.23V6.68h8.23ZM680.02,23.38h-3.72c-6.02,0-9.62-3.05-9.62-8.35s3.6-8.35,9.62-8.35h3.72v16.7Z"></path>
  <path class="cls-1" d="M272.55,0C231.76,0,217.35,29.67,205.77,53.51c-12.08,24.87-20.71,40.12-44.96,40.12-19.95,0-36.19-16.23-36.19-36.19s16.23-36.19,36.19-36.19c11.27,0,19.16,3.32,25.6,9.35l10.04-19.24C187.52,4.51,176.1,0,160.82,0,129.14,0,103.38,25.77,103.38,57.44s25.77,57.44,57.44,57.44c38.78,0,52.81-28.88,64.08-52.09,12.5-25.76,21.5-41.54,47.66-41.54,19.95,0,36.19,16.24,36.19,36.19s-16.23,36.19-36.19,36.19c-21.67,0-31.56-10.85-41.42-29.21-.19.39-.37.74-.56,1.13-3.18,6.56-6.7,13.8-11.04,20.82,10.71,15.62,26.13,28.51,53.02,28.51,31.67,0,57.44-25.77,57.44-57.44S304.22,0,272.55,0"></path>
  <path class="cls-3" d="M282.93,57.44c0-6.37-5.17-11.54-11.54-11.54s-11.54,5.17-11.54,11.54,5.17,11.54,11.54,11.54,11.54-5.17,11.54-11.54"></path>
  <path class="cls-1" d="M19.94,5.11c-3.97,1.7-7.44,4.03-10.41,6.99-2.96,2.96-5.29,6.43-6.99,10.41-1.69,3.98-2.54,8.22-2.54,12.72s.85,8.75,2.54,12.72c1.45,3.39,3.38,6.39,5.75,9.04-2.37,2.65-4.3,5.65-5.75,9.04-1.69,3.98-2.54,8.22-2.54,12.72s.85,8.75,2.54,12.72c1.7,3.97,4.03,7.44,6.99,10.41,2.96,2.96,6.43,5.29,10.41,6.99,3.98,1.7,8.22,2.54,12.72,2.54h55.22v-21.72h-55.22c-1.52,0-2.94-.29-4.25-.88-1.31-.58-2.47-1.37-3.46-2.35-.99-.99-1.76-2.14-2.32-3.46-.55-1.32-.83-2.73-.83-4.25s.28-2.94.83-4.25c.56-1.32,1.33-2.47,2.32-3.46.99-.99,2.14-1.77,3.46-2.35,1.17-.52,2.43-.77,3.76-.82.17,0,.33.02.5.02h55.22v-21.8h-55.22c-.17,0-.33.02-.5.02-1.33-.06-2.59-.31-3.76-.82-1.31-.58-2.47-1.37-3.46-2.35-.99-.99-1.76-2.14-2.32-3.46-.55-1.32-.83-2.73-.83-4.25s.28-2.94.83-4.25c.56-1.32,1.33-2.47,2.32-3.46.99-.99,2.14-1.77,3.46-2.35,1.32-.58,2.74-.88,4.25-.88h55.22V2.56h-55.22c-4.51,0-8.75.85-12.72,2.54"></path>
  <path class="cls-3" d="M645.55,34.54c-1.04-3.69-2.51-7.16-4.41-10.41-1.9-3.24-4.18-6.19-6.84-8.85-2.66-2.66-5.6-4.94-8.81-6.84-3.22-1.9-6.67-3.37-10.37-4.41-3.7-1.04-7.55-1.56-11.54-1.56h-43.6v108.92h21.8v-21.8l24.38-.15,9.5,21.95h23.17l-12.08-28.48c3.14-1.97,5.97-4.3,8.51-6.99,2.53-2.68,4.67-5.62,6.42-8.81,1.75-3.19,3.08-6.56,4.02-10.1.93-3.54,1.4-7.19,1.4-10.94,0-4-.52-7.85-1.56-11.55M623.6,54.55c-1.14,2.66-2.7,4.98-4.67,6.95-1.98,1.98-4.28,3.53-6.91,4.67-2.63,1.14-5.45,1.71-8.43,1.71h-21.8V24.29h21.8c2.99,0,5.8.57,8.43,1.71,2.63,1.14,4.93,2.7,6.91,4.67,1.97,1.98,3.53,4.29,4.67,6.95,1.14,2.66,1.71,5.48,1.71,8.47s-.57,5.81-1.71,8.47"></path>
  <path class="cls-3" d="M444.8,9.53c-2.96-2.96-6.43-5.29-10.41-6.99-3.98-1.69-8.22-2.54-12.72-2.54s-8.75.85-12.72,2.54c-3.39,1.45-6.39,3.38-9.04,5.75-2.65-2.37-5.65-4.3-9.04-5.75-3.97-1.69-8.21-2.54-12.72-2.54s-8.75.85-12.72,2.54c-3.98,1.7-7.44,4.03-10.41,6.99-2.96,2.96-5.29,6.43-6.99,10.41-1.7,3.97-2.54,8.22-2.54,12.72v78.74h21.72V32.66c0-1.52.29-2.94.88-4.26.58-1.31,1.37-2.47,2.35-3.46.99-.99,2.14-1.76,3.46-2.32,1.32-.55,2.73-.83,4.25-.83s2.94.28,4.25.83c1.32.56,2.47,1.33,3.46,2.32.99.99,1.77,2.14,2.35,3.46.52,1.17.77,2.43.82,3.76,0,.17-.02.33-.02.5v78.74h21.8V32.66c0-.17-.02-.33-.02-.5.06-1.33.31-2.59.83-3.76.58-1.31,1.37-2.47,2.35-3.46.99-.99,2.14-1.76,3.46-2.32,1.32-.55,2.73-.83,4.25-.83s2.94.28,4.25.83c1.32.56,2.47,1.33,3.46,2.32.99.99,1.77,2.14,2.35,3.46.58,1.32.88,2.74.88,4.26v78.74h21.72V32.66c0-4.51-.85-8.75-2.54-12.72-1.7-3.97-4.03-7.44-6.99-10.41"></path>
  <rect class="cls-3" x="469.83" y="89.61" width="74.67" height="21.8"></rect>
  <rect class="cls-3" x="469.83" y="2.49" width="74.67" height="21.8"></rect>
  <path class="cls-1" d="M492.91,57.39c0-6.37-5.17-11.54-11.54-11.54s-11.54,5.17-11.54,11.54,5.17,11.54,11.54,11.54,11.54-5.17,11.54-11.54"></path>
</svg>
